<?xml version="1.0" standalone="no"?>
<!DOCTYPE svg PUBLIC "-//W3C//DTD SVG 20010904//EN"
 "http://www.w3.org/TR/2001/REC-SVG-20010904/DTD/svg10.dtd">
<svg version="1.0" xmlns="http://www.w3.org/2000/svg"
 width="512.000000pt" height="512.000000pt" viewBox="0 0 512.000000 512.000000"
 preserveAspectRatio="xMidYMid meet">

<g transform="translate(0.000000,512.000000) scale(0.100000,-0.100000)"
fill="#000000" stroke="none">
<path d="M512 4729 c-46 -14 -109 -79 -122 -128 -7 -28 -10 -186 -8 -484 l3
-442 24 -38 c13 -21 42 -50 64 -65 34 -23 52 -27 107 -27 55 0 73 4 107 27 22
15 51 44 64 65 24 38 24 40 27 371 l3 332 1970 0 1969 0 0 -1590 0 -1589 -713
-3 -713 -3 -41 -27 c-62 -41 -88 -90 -88 -168 0 -78 26 -127 88 -168 l41 -27
846 0 846 0 41 27 c22 15 51 44 64 65 l24 38 0 1856 0 1855 -27 41 c-15 22
-44 51 -65 64 l-38 24 -2220 2 c-1382 1 -2232 -2 -2253 -8z"/>
<path d="M512 3129 c-47 -14 -109 -79 -123 -131 -23 -88 12 -182 86 -228 31
-19 59 -24 173 -31 224 -15 372 -45 561 -116 463 -173 843 -546 1024 -1008 76
-192 111 -355 126 -588 7 -122 11 -141 34 -176 40 -61 90 -86 168 -86 54 0 72
5 106 27 87 58 105 133 84 358 -26 276 -98 530 -217 769 -115 231 -235 400
-412 578 -300 302 -690 513 -1102 596 -206 42 -431 58 -508 36z"/>
<path d="M512 2329 c-48 -14 -109 -80 -123 -131 -23 -88 12 -182 86 -228 28
-17 60 -24 145 -31 275 -22 471 -109 651 -288 179 -180 266 -376 288 -652 10
-125 30 -168 98 -210 57 -36 154 -34 210 3 22 15 51 44 64 65 22 35 24 48 23
153 -5 613 -477 1174 -1094 1300 -117 24 -301 34 -348 19z"/>
<path d="M453 1525 c-35 -8 -93 -28 -130 -46 -93 -45 -217 -169 -261 -261 -80
-165 -80 -351 0 -516 45 -93 168 -216 262 -261 166 -79 346 -79 513 0 94 44
216 167 262 263 80 167 80 345 0 512 -46 95 -168 217 -263 263 -122 58 -254
74 -383 46z m207 -407 c132 -67 132 -249 0 -315 -56 -29 -104 -29 -160 0 -132
66 -132 248 0 315 24 12 60 22 80 22 20 0 56 -10 80 -22z"/>
</g>
</svg>
