<?xml version="1.0" standalone="no"?>
<!DOCTYPE svg PUBLIC "-//W3C//DTD SVG 20010904//EN"
 "http://www.w3.org/TR/2001/REC-SVG-20010904/DTD/svg10.dtd">
<svg version="1.0" xmlns="http://www.w3.org/2000/svg"
 width="980.000000pt" height="868.000000pt" viewBox="0 0 980.000000 868.000000"
 preserveAspectRatio="xMidYMid meet">

<g transform="translate(0.000000,868.000000) scale(0.100000,-0.100000)"
fill="#000000" stroke="none">
<path d="M1045 8659 c-165 -24 -348 -96 -498 -195 -272 -182 -463 -470 -528
-799 -21 -104 -21 -5396 0 -5500 102 -514 496 -903 1005 -990 78 -13 530 -15
3876 -15 3440 0 3795 1 3880 16 320 55 603 233 792 499 96 136 176 321 209
490 12 59 14 506 14 2750 0 2913 4 2723 -56 2906 -72 224 -217 436 -393 575
-150 120 -287 189 -478 241 l-103 28 -3830 1 c-2126 1 -3857 -2 -3890 -7z
m7695 -622 c172 -58 306 -170 377 -317 23 -47 47 -110 55 -140 11 -45 13 -514
13 -2670 0 -2506 -1 -2618 -18 -2680 -48 -170 -166 -314 -318 -389 -158 -78
202 -71 -3981 -69 -3630 3 -3755 4 -3808 22 -216 73 -362 220 -427 431 -17 58
-18 165 -18 2690 0 2525 1 2632 18 2690 53 170 168 310 318 384 153 76 -199
70 3974 68 3627 -2 3762 -3 3815 -20z"/>
<path d="M4107 6810 c-326 -59 -574 -269 -688 -580 -65 -180 -62 -126 -66
-1135 -5 -982 -3 -1035 44 -1195 26 -91 81 -210 134 -287 87 -128 255 -258
405 -312 119 -43 202 -54 355 -48 152 5 255 31 394 96 95 45 1376 825 1480
901 295 217 453 552 415 880 -36 310 -220 573 -535 767 -784 482 -1288 784
-1365 821 -133 62 -257 92 -405 97 -66 2 -142 0 -168 -5z m284 -634 c57 -23
1291 -771 1407 -853 208 -147 229 -372 52 -537 -65 -60 -1357 -855 -1455 -895
-88 -35 -186 -40 -253 -11 -71 30 -126 95 -154 179 -23 66 -23 67 -26 921 -2
560 1 882 7 934 21 157 96 256 216 287 46 12 144 0 206 -25z"/>
<path d="M1118 604 c-64 -20 -149 -99 -179 -166 -16 -39 -23 -72 -23 -123 0
-95 29 -160 101 -225 97 -88 -318 -80 3964 -80 l3808 0 55 21 c154 57 234 238
176 393 -30 79 -97 146 -173 175 l-58 21 -3812 -1 c-3288 0 -3818 -2 -3859
-15z"/>
</g>
</svg>
