<?xml version="1.0" standalone="no"?>
<!DOCTYPE svg PUBLIC "-//W3C//DTD SVG 20010904//EN"
 "http://www.w3.org/TR/2001/REC-SVG-20010904/DTD/svg10.dtd">
<svg version="1.0" xmlns="http://www.w3.org/2000/svg"
 width="512.000000pt" height="512.000000pt" viewBox="0 0 512.000000 512.000000"
 preserveAspectRatio="xMidYMid meet">

<g transform="translate(0.000000,512.000000) scale(0.100000,-0.100000)"
fill="#000000" stroke="none">
<path d="M967 4729 c-367 -39 -701 -299 -836 -649 -71 -183 -85 -409 -37 -595
39 -152 124 -318 214 -417 l34 -38 -75 0 c-42 0 -88 -5 -104 -11 -42 -15 -92
-68 -103 -109 -6 -22 -10 -468 -10 -1205 l0 -1171 23 -44 c26 -52 59 -78 113
-90 57 -14 3479 -13 3526 0 41 12 91 50 111 84 8 14 14 100 17 268 l5 248 499
-295 c275 -163 515 -299 535 -303 76 -17 141 15 179 88 l22 44 0 1171 c0 1110
-1 1172 -19 1210 -35 78 -117 126 -189 112 -15 -3 -254 -141 -530 -306 l-502
-299 0 241 c0 232 -1 244 -23 281 -32 57 -77 80 -169 86 l-77 5 55 70 c147
189 225 435 211 669 -15 261 -122 493 -311 674 -171 164 -366 255 -597 281
-185 20 -369 -13 -544 -98 -163 -80 -290 -190 -390 -338 l-43 -65 -35 54
c-211 316 -575 488 -950 447z m283 -350 c120 -32 204 -82 301 -179 47 -47 99
-110 117 -140 80 -143 109 -322 78 -480 -68 -338 -368 -575 -706 -557 -278 14
-531 201 -626 461 -67 186 -49 392 53 575 43 78 164 201 245 249 158 94 353
119 538 71z m1760 0 c120 -32 204 -82 301 -179 95 -94 135 -157 174 -273 57
-170 42 -352 -42 -526 -111 -230 -354 -380 -616 -381 -317 -1 -599 220 -673
527 -22 90 -22 249 -1 333 31 119 92 226 182 315 44 44 106 95 137 113 159 94
353 119 538 71z m-963 -1300 l46 -49 -142 0 -142 0 51 66 c28 36 57 79 66 96
l15 30 30 -47 c16 -25 50 -68 76 -96z m1473 -1369 l0 -1000 -1572 2 -1573 3
-3 998 -2 997 1575 0 1575 0 0 -1000z m1230 -1 c0 -826 -1 -871 -17 -864 -10
3 -215 122 -455 263 l-438 257 0 341 0 342 453 266 c248 146 453 266 455 266
1 0 2 -392 2 -871z"/>
<path d="M740 1220 l0 -160 360 0 360 0 0 160 0 160 -360 0 -360 0 0 -160z"/>
</g>
</svg>
