<?xml version="1.0" encoding="UTF-8" standalone="no"?>
<!DOCTYPE svg PUBLIC "-//W3C//DTD SVG 20010904//EN" "http://www.w3.org/TR/2001/REC-SVG-20010904/DTD/svg10.dtd">
<svg version="1.0" xmlns="http://www.w3.org/2000/svg" width="1280.000000pt" height="538.000000pt" viewBox="0 0 1280.000000 538.000000" preserveAspectRatio="xMidYMid meet">
<g transform="translate(0.000000,538.000000) scale(0.100000,-0.100000)" fill="#000000" stroke="none">
<path d="M6905 4504 c-55 -2 -266 -8 -470 -14 -897 -25 -1090 -56 -1286 -201 -226 -167 -309 -365 -351 -839 -18 -201 -18 -1395 0 -1570 37 -365 121 -591 277 -745 233 -231 634 -268 2915 -269 1640 0 2299 24 2600 95 260 61 448 243 533 514 85 274 128 855 108 1472 -20 626 -57 867 -166 1088 -75 152 -173 243 -351 327 -176 82 -302 97 -1089 129 -236 10 -2482 20 -2720 13z m-259 -635 c4 -7 9 -74 12 -150 l5 -139 -54 -1 c-30 -1 -139 -4 -244 -8 l-190 -6 -6 -915 c-3 -503 -7 -950 -8 -993 l-1 -77 -187 2 -188 3 -5 980 c-3 539 -9 986 -13 993 -6 8 -40 12 -111 12 -57 0 -151 3 -209 7 l-107 6 0 138 c0 121 2 139 18 148 25 15 1278 15 1288 0z m1787 -344 c4 -192 10 -356 12 -362 7 -20 67 -15 100 8 57 38 170 92 235 110 83 24 126 24 193 -1 106 -40 207 -184 227 -322 5 -35 10 -305 10 -600 l0 -537 -31 -53 c-50 -84 -93 -131 -149 -162 -127 -69 -331 -31 -469 87 -54 46 -101 61 -116 36 -4 -5 -8 -40 -9 -77 l-2 -67 -170 0 -169 0 4 1140 c2 627 5 1143 8 1148 2 4 75 6 161 5 l157 -3 8 -350z m1811 -250 c209 -55 350 -196 391 -390 23 -110 39 -312 31 -396 l-7 -76 -302 -7 c-344 -7 -440 -13 -462 -30 -13 -10 -14 -38 -6 -228 7 -184 11 -221 27 -249 32 -54 67 -73 144 -77 165 -10 187 14 214 228 l12 95 184 0 185 0 -4 -80 c-8 -198 -69 -311 -224 -414 -59 -40 -110 -57 -210 -71 -261 -34 -415 12 -561 171 -110 119 -116 148 -123 574 -6 356 5 579 33 659 20 59 115 164 197 217 58 38 144 71 228 89 57 12 178 5 253 -15z m-3263 -35 c4 -14 7 -95 8 -180 2 -282 21 -983 31 -1100 11 -132 16 -140 92 -140 55 0 106 22 185 82 l53 40 2 662 3 661 175 0 175 0 7 -85 c8 -113 10 -1358 1 -1493 l-6 -107 -61 0 c-34 0 -111 3 -172 6 l-111 7 -6 65 c-4 36 -9 67 -11 69 -3 3 -20 5 -38 6 -25 0 -52 -13 -109 -54 -120 -87 -165 -104 -284 -104 -82 0 -107 4 -140 21 -55 29 -101 92 -114 156 -21 105 -44 1491 -25 1510 3 3 80 5 172 4 l166 -1 7 -25z"/>
<path d="M8666 2990 c-87 -34 -80 17 -70 -582 11 -587 10 -578 74 -610 40 -21 162 -24 223 -7 51 14 63 45 78 192 14 148 6 862 -10 928 -7 26 -23 57 -37 70 -23 21 -36 24 -117 27 -73 1 -102 -2 -141 -18z"/>
<path d="M10060 3042 c-24 -11 -43 -32 -59 -66 -22 -43 -25 -65 -29 -202 l-5 -153 24 -6 c13 -3 98 -4 189 -3 l165 3 3 171 c2 163 2 172 -20 205 -34 49 -80 69 -163 69 -47 0 -82 -6 -105 -18z"/>
<path d="M337 4013 c-16 -15 -5 -86 24 -154 29 -68 424 -1074 465 -1185 17 -44 19 -97 24 -534 l5 -485 218 1 c120 0 222 5 226 10 5 5 14 230 19 501 l10 492 170 423 c271 673 334 843 330 891 l-3 42 -225 3 c-171 2 -230 -1 -242 -10 -9 -7 -62 -150 -118 -318 -141 -419 -152 -450 -161 -450 -5 0 -11 12 -15 28 -3 15 -22 68 -41 117 -20 50 -76 209 -124 354 -49 146 -94 268 -101 273 -16 9 -452 11 -461 1z"/>
<path d="M2119 3382 c-81 -22 -150 -65 -223 -141 -94 -99 -109 -153 -127 -466 -14 -226 -5 -646 15 -755 19 -104 65 -191 141 -267 89 -89 176 -129 312 -144 116 -12 293 0 380 26 69 21 186 107 245 179 82 103 81 91 85 601 6 540 -1 637 -48 726 -65 121 -147 191 -272 232 -90 29 -412 35 -508 9z m336 -336 c51 -51 58 -101 62 -486 5 -372 -4 -523 -32 -567 -9 -14 -41 -36 -70 -49 l-54 -25 -50 26 c-89 45 -86 24 -89 478 -3 391 5 547 28 599 17 36 44 47 118 47 53 1 66 -3 87 -23z"/>
<path d="M3324 3355 c-11 -28 3 -1415 15 -1520 19 -166 37 -199 126 -241 42 -20 66 -24 146 -24 59 0 116 6 150 16 60 18 184 78 242 118 21 14 41 26 46 26 4 0 8 -30 8 -66 0 -36 5 -70 10 -75 5 -5 95 -8 214 -7 l204 3 0 890 0 890 -210 0 -210 0 -3 -657 -2 -657 -58 -51 c-54 -48 -160 -110 -188 -110 -8 0 -21 11 -29 24 -14 21 -18 84 -25 393 -5 202 -9 508 -10 678 0 171 -3 327 -6 348 l-7 37 -204 0 c-172 0 -205 -2 -209 -15z"/>
</g>
</svg>